<?xml version="1.0" encoding="UTF-8" standalone="no" ?>
<!DOCTYPE svg PUBLIC "-//W3C//DTD SVG 1.1//EN" "http://www.w3.org/Graphics/SVG/1.1/DTD/svg11.dtd">
<svg xmlns="http://www.w3.org/2000/svg" xmlns:xlink="http://www.w3.org/1999/xlink" version="1.1" width="350" height="350" viewBox="0 0 350 350" xml:space="preserve">
<desc>Created with Fabric.js 1.7.22</desc>
<defs>
</defs>
<g id="icon" style="stroke: none; stroke-width: 1; stroke-dasharray: none; stroke-linecap: butt; stroke-linejoin: miter; stroke-miterlimit: 10; fill: none; fill-rule: nonzero; opacity: 1;" transform="translate(-1.9444444444444287 -1.9444444444444287) scale(3.89 3.89)" >
	<path d="M 52.025 15.97 c -9.941 -9.941 -26.115 -9.941 -36.055 0 c -9.941 9.94 -9.941 26.115 0 36.055 c 4.97 4.97 11.499 7.456 18.027 7.456 s 13.057 -2.485 18.027 -7.456 C 61.964 42.085 61.964 25.91 52.025 15.97 z M 49.258 49.258 c -8.414 8.414 -22.105 8.414 -30.521 0 c -8.414 -8.415 -8.414 -22.106 0 -30.521 c 4.207 -4.207 9.734 -6.311 15.26 -6.311 s 11.053 2.104 15.26 6.311 C 57.672 27.152 57.672 40.843 49.258 49.258 z" style="stroke: none; stroke-width: 1; stroke-dasharray: none; stroke-linecap: butt; stroke-linejoin: miter; stroke-miterlimit: 10; fill: rgb(0,0,0); fill-rule: nonzero; opacity: 1;" transform=" matrix(1 0 0 1 0 0) " stroke-linecap="round" />
	<path d="M 87.856 77.487 l -25.19 -25.19 c 8.596 -13.405 6.767 -30.966 -4.618 -42.351 c -13.262 -13.262 -34.84 -13.262 -48.102 0 c -13.261 13.261 -13.261 34.84 0 48.102 c 11.384 11.384 28.946 13.216 42.351 4.618 l 25.19 25.19 C 78.917 89.285 80.794 90 82.672 90 c 1.878 0 3.755 -0.715 5.184 -2.144 C 90.715 84.997 90.715 80.346 87.856 77.487 z M 52.539 58.185 c -0.395 0 -0.791 0.119 -1.133 0.362 c -11.996 8.531 -28.269 7.156 -38.692 -3.266 c -11.735 -11.736 -11.735 -30.832 0 -42.568 c 11.736 -11.735 30.831 -11.736 42.568 0 c 10.423 10.423 11.796 26.695 3.266 38.692 c -0.553 0.779 -0.464 1.842 0.211 2.518 l 2.211 2.211 l -4.835 4.835 l -2.211 -2.211 C 53.545 58.379 53.043 58.185 52.539 58.185 z M 85.089 85.089 c -1.334 1.332 -3.501 1.332 -4.835 0 L 58.901 63.736 l 4.835 -4.835 l 21.353 21.353 C 86.422 81.587 86.422 83.756 85.089 85.089 z" style="stroke: none; stroke-width: 1; stroke-dasharray: none; stroke-linecap: butt; stroke-linejoin: miter; stroke-miterlimit: 10; fill: rgb(0,0,0); fill-rule: nonzero; opacity: 1;" transform=" matrix(1 0 0 1 0 0) " stroke-linecap="round" />
	<path d="M 22.958 46.877 c -0.501 0 -1.002 -0.191 -1.384 -0.573 c -6.776 -6.776 -6.776 -17.801 0 -24.577 c 0.763 -0.764 2.004 -0.764 2.767 0 c 0.764 0.764 0.764 2.003 0 2.767 c -5.25 5.25 -5.249 13.792 0 19.043 c 0.764 0.764 0.764 2.003 0 2.767 C 23.96 46.686 23.459 46.877 22.958 46.877 z" style="stroke: none; stroke-width: 1; stroke-dasharray: none; stroke-linecap: butt; stroke-linejoin: miter; stroke-miterlimit: 10; fill: rgb(0,0,0); fill-rule: nonzero; opacity: 1;" transform=" matrix(1 0 0 1 0 0) " stroke-linecap="round" />
	<path d="M 48.109 41.888 c -0.249 0 -0.504 -0.048 -0.748 -0.15 c -0.998 -0.414 -1.472 -1.559 -1.059 -2.557 c 1.271 -3.065 1.368 -6.48 0.272 -9.616 c -0.355 -1.02 0.182 -2.136 1.203 -2.492 c 1.019 -0.357 2.135 0.182 2.493 1.202 c 1.412 4.045 1.287 8.451 -0.353 12.405 C 49.605 41.433 48.877 41.888 48.109 41.888 z" style="stroke: none; stroke-width: 1; stroke-dasharray: none; stroke-linecap: butt; stroke-linejoin: miter; stroke-miterlimit: 10; fill: rgb(0,0,0); fill-rule: nonzero; opacity: 1;" transform=" matrix(1 0 0 1 0 0) " stroke-linecap="round" />
</g>
</svg>